<?xml version="1.0" encoding="utf-8"?>
<!-- Generator: Adobe Illustrator 23.0.0, SVG Export Plug-In . SVG Version: 6.00 Build 0)  -->
<svg version="1.1" id="Layer_1" xmlns="http://www.w3.org/2000/svg" xmlns:xlink="http://www.w3.org/1999/xlink" x="0px" y="0px"
	 viewBox="0 0 220 50" style="enable-background:new 0 0 220 50;" xml:space="preserve">
<style type="text/css">
	.st0{fill:#082042;}
	.st1{clip-path:url(#SVGID_2_);fill-rule:evenodd;clip-rule:evenodd;fill:#19A6F7;}
	.st2{clip-path:url(#SVGID_2_);fill:#764BD9;}
	.st3{clip-path:url(#SVGID_4_);fill-rule:evenodd;clip-rule:evenodd;fill:#19A6F7;}
	.st4{clip-path:url(#SVGID_4_);fill:#764BD9;}
</style>
<path class="st0" d="M-1378.6,651.5c-9.1,0-17.1-1.5-24.1-4.5c-6.9-3-12.6-7.7-17-14.2c-1.8,2.8-3.8,4.8-6.2,6.1
	c-2.4,1.2-4.6,2.5-6.8,3.9c-2.2,1.4-4.1,3.2-5.7,5.5c-1.6,2.3-2.4,5.9-2.4,10.8V702h-22.1v-48.4c0-5.4,0.8-10,2.4-13.5
	c1.6-3.6,3.6-6.6,6-8.9c2.5-2.4,5.1-4.3,8-5.9c2.9-1.6,5.6-3.2,8.2-4.7c2.5-1.6,4.7-3.4,6.6-5.4c1.8-2,2.9-4.7,3.3-8
	c-0.2-1.9-0.3-3.9-0.4-5.9c-0.1-2-0.1-4.2-0.1-6.4c0-20.2,4.5-34.8,13.4-43.8c8.9-9,21.2-13.5,36.8-13.5c15.6,0,27.9,4.5,36.8,13.5
	c8.9,9,13.4,23.6,13.4,43.8c0,10-1.2,18.6-3.6,25.8c-2.4,7.2-5.7,13.1-10,17.6c-4.3,4.6-9.6,7.9-15.8,10.1
	C-1363.9,650.4-1370.9,651.5-1378.6,651.5z M-1378.6,557.9c-9.8,0-17,3.2-21.4,9.7c-4.5,6.5-6.7,15.5-6.7,27.1
	c0,12.6,2.2,21.8,6.7,27.6c4.5,5.8,11.6,8.7,21.4,8.7c9.8,0,17-2.9,21.4-8.7c4.5-5.8,6.7-15,6.7-27.6c0-11.6-2.2-20.6-6.7-27.1
	C-1361.6,561.1-1368.8,557.9-1378.6,557.9z M-1273.4,647.1c0,1.8-0.9,2.6-2.6,2.6h-16.8c-1.8,0-2.6-0.9-2.6-2.6V473.5
	c0-1.8,0.9-2.6,2.6-2.6h16.8c1.8,0,2.6,0.9,2.6,2.6V647.1z M-1140.8,611.3c0,6,2.1,10.4,6.4,13.4c4.3,3,10,4.5,17.2,4.5h2.9
	c3.5,0,6.1,0.7,7.9,2.2c1.8,1.5,2.6,4,2.6,7.5c0,4.6-0.8,7.5-2.5,8.8c-1.7,1.3-4.3,2-8,2h-5.5c-6,0-11.3-1.3-16.1-3.8
	c-4.7-2.5-8.1-6.4-10-11.4c-3,5.8-7.2,9.8-12.5,12c-5.3,2.2-12.2,3.3-20.6,3.3h-58.4c-1.8,0-2.6-0.9-2.6-2.6v-15.3
	c0-1.8,0.9-2.6,2.6-2.6h50.2c4.9,0,8.9-0.4,11.8-1.2c3-0.8,5.3-2.1,6.8-3.9c1.6-1.8,2.6-4.3,3.2-7.2c0.5-3,0.8-6.7,0.8-11.3v-21
	c0-17.7-10-26.6-30-26.6h-30.5c-1.8,0-2.6-0.9-2.6-2.6V540c0-1.8,0.9-2.6,2.6-2.6h38.7c13.3,0,24.2,3.8,32.7,11.3
	c8.5,7.5,12.8,19.4,12.8,35.5V611.3z M-1046.9,537.4c8.9,0,16.7,1.2,23.1,3.6c6.5,2.4,11.9,5.7,16.2,9.9c4.3,4.2,7.5,9.3,9.6,15.1
	c2.1,5.9,3.2,12.3,3.2,19.3c0,8.9-2.1,17.3-6.2,25c-4.1,7.7-9.9,14.1-17.2,19.2c0.9-0.2,2.2-0.3,3.9-0.3h36.6c3.5,0,6.1,0.6,7.9,1.8
	c1.8,1.2,2.6,3.7,2.6,7.4c0,4.4-0.8,7.4-2.5,8.9c-1.7,1.6-4.3,2.4-8,2.4h-35c-6.3,0-12.3-0.3-17.9-0.8c-5.6-0.5-11-2.4-16-5.5
	c-5.8,3.2-12,5-18.5,5.5c-6.6,0.5-12.4,0.8-17.5,0.8h-31.8c-7,0-10.5-3.5-10.5-10.5c0-4.4,0.8-7.1,2.5-8.3c1.7-1.1,4.3-1.7,8-1.7
	h38.7c-7.2-5.1-12.8-11.4-17-19.1c-4.1-7.6-6.2-15.9-6.2-24.9c0-7,1.1-13.5,3.2-19.3c2.1-5.9,5.3-10.9,9.6-15.1
	c4.3-4.2,9.7-7.5,16.2-9.9C-1063.6,538.6-1055.8,537.4-1046.9,537.4z M-1046.9,557.9c-8.4,0-15.3,2.5-20.8,7.4
	c-5.4,4.9-8.2,12-8.2,21.3c0,9.5,2.8,17.4,8.4,23.8c5.6,6.4,12.4,11.2,20.5,14.3c8.1-3.2,14.9-7.9,20.5-14.3
	c5.6-6.4,8.4-14.3,8.4-23.8c0-9.3-2.7-16.4-8.2-21.3C-1031.6,560.4-1038.5,557.9-1046.9,557.9z M-1071.9,516.1
	c-1.8,0-2.6-0.9-2.6-2.6v-19.2c0-1.8,0.9-2.6,2.6-2.6h17.9c1.8,0,2.6,0.9,2.6,2.6v19.2c0,1.8-0.9,2.6-2.6,2.6H-1071.9z
	 M-1039.8,516.1c-1.8,0-2.6-0.9-2.6-2.6v-19.2c0-1.8,0.9-2.6,2.6-2.6h17.9c1.8,0,2.6,0.9,2.6,2.6v19.2c0,1.8-0.9,2.6-2.6,2.6
	H-1039.8z M-975.9,649.7c-3.5,0-6.1-0.6-7.9-1.8c-1.8-1.2-2.6-3.7-2.6-7.4c0-4.4,0.8-7.4,2.5-8.9c1.7-1.6,4.3-2.4,8-2.4h17.9
	c4.4,0,7.6-1,9.6-3c2-2,3-5.7,3-10.9v-70.5c0-1.8,0.9-2.6,2.6-2.6h16.8c1.8,0,2.6,0.9,2.6,2.6v66.5c0,6,2.1,10.4,6.4,13.4
	c4.3,3,10,4.5,17.2,4.5h3.2c3.5,0,6.1,0.7,7.9,2.2c1.8,1.5,2.6,4,2.6,7.5c0,4.6-0.8,7.5-2.5,8.8c-1.7,1.3-4.3,2-8,2h-5.8
	c-5.6,0-10.5-1.1-14.7-3.4c-4.2-2.3-7.5-5.7-9.7-10.3c-4.4,9.1-13.5,13.7-27.4,13.7H-975.9z M-959.8,516.1c-1.8,0-2.6-0.9-2.6-2.6
	v-19.2c0-1.8,0.9-2.6,2.6-2.6h17.9c1.8,0,2.6,0.9,2.6,2.6v19.2c0,1.8-0.9,2.6-2.6,2.6H-959.8z M-927.7,516.1c-1.8,0-2.6-0.9-2.6-2.6
	v-19.2c0-1.8,0.9-2.6,2.6-2.6h17.9c1.8,0,2.6,0.9,2.6,2.6v19.2c0,1.8-0.9,2.6-2.6,2.6H-927.7z M-816.2,649.7
	c-5.6,0-10.5-1.1-14.7-3.4c-4.2-2.3-7.5-5.7-9.7-10.3c-4.4,9.1-13.5,13.7-27.4,13.7h-28.4c-3.5,0-6.1-0.6-7.9-1.8
	c-1.8-1.2-2.6-3.7-2.6-7.4c0-4.4,0.8-7.4,2.5-8.9c1.7-1.6,4.3-2.4,8-2.4h24.5c4.4,0,7.6-1,9.6-3c2-2,3-5.7,3-10.9v-47.9
	c0-1.8,0.9-2.6,2.6-2.6h16.8c1.8,0,2.6,0.9,2.6,2.6v43.9c0,6,2.1,10.4,6.3,13.4c4.2,3,9.8,4.5,16.8,4.5h6.6c4.4,0,7.6-1,9.6-3
	c2-2,3-5.7,3-10.9v-47.9c0-1.8,0.9-2.6,2.6-2.6h16.8c1.8,0,2.6,0.9,2.6,2.6v43.9c0,6,2.1,10.4,6.3,13.4c4.2,3,9.8,4.5,16.8,4.5h6.6
	c4.4,0,7.6-1,9.6-3c2-2,3-5.7,3-10.9v-70.5c0-1.8,0.9-2.6,2.6-2.6h16.8c1.8,0,2.6,0.9,2.6,2.6v71.8c0,11.4-2.4,19.8-7.1,25.1
	c-4.7,5.4-12.6,8-23.7,8h-12.6c-5.6,0-10.5-1.1-14.7-3.4c-4.2-2.3-7.5-5.7-9.7-10.3c-4.4,9.1-13.5,13.7-27.4,13.7H-816.2z
	 M-604.2,629.2h30.8c4.4,0,7.6-1,9.6-3c2-2,3-5.7,3-10.9V473.5c0-1.8,0.9-2.6,2.6-2.6h16.8c1.8,0,2.6,0.9,2.6,2.6v141.2
	c0.9,4.9,3.4,8.5,7.5,10.9c4.1,2.4,9.4,3.6,15.9,3.6h2.9c3.5,0,6.1,0.7,7.9,2.2c1.8,1.5,2.6,4,2.6,7.5c0,4.6-0.8,7.5-2.5,8.8
	c-1.7,1.3-4.3,2-8,2h-5.5c-5.4,0-10.3-1.1-14.5-3.3c-4.2-2.2-7.5-5.6-10-10.1c-4,8.9-13.1,13.4-27.1,13.4h-108.6
	c-1.8,0-2.6-0.9-2.6-2.6v-15.3c0-1.8,0.9-2.6,2.6-2.6h51.8V510.5c0-1.8,0.9-2.6,2.6-2.6h16.8c1.8,0,2.6,0.9,2.6,2.6V629.2z
	 M-512.4,649.7c-3.5,0-6.1-0.6-7.9-1.8c-1.8-1.2-2.6-3.7-2.6-7.4c0-4.4,0.8-7.4,2.5-8.9c1.7-1.6,4.3-2.4,8-2.4h16.6
	c4.4,0,7.6-1,9.6-3c2-2,3-5.7,3-10.9V473.5c0-1.8,0.9-2.6,2.6-2.6h16.8c1.8,0,2.6,0.9,2.6,2.6v143.1c0,11.4-2.4,19.8-7.1,25.1
	c-4.7,5.4-12.6,8-23.7,8H-512.4z M-265.4,604.7c0,8.8-0.8,16-2.3,21.8c-1.5,5.8-3.8,10.4-6.9,13.8c-3.1,3.4-7,5.8-11.8,7.2
	c-4.8,1.4-10.5,2.1-17.2,2.1H-362c-1.8,0-2.6-0.9-2.6-2.6v-15.3c0-1.8,0.9-2.6,2.6-2.6h50.2c4.9,0,8.9-0.4,11.8-1.2
	c3-0.8,5.3-2.1,6.8-3.9c1.6-1.8,2.6-4.3,3.2-7.2c0.5-3,0.8-6.7,0.8-11.3v-21c0-17.7-10-26.6-30-26.6h-30.5c-1.8,0-2.6-0.9-2.6-2.6
	V540c0-1.8,0.9-2.6,2.6-2.6h38.7c13.3,0,24.2,3.8,32.7,11.3c8.5,7.5,12.8,19.4,12.8,35.5V604.7z M-248.6,702c-1.8,0-2.6-0.9-2.6-2.6
	v-15.3c0-1.8,0.9-2.6,2.6-2.6h6c14.2,0,21.3-7.5,21.3-22.4V544.7c0-1.8,0.9-2.6,2.6-2.6h16.8c1.8,0,2.6,0.9,2.6,2.6v66.5
	c0,6,2.1,10.4,6.4,13.4c4.3,3,10,4.5,17.2,4.5h2.9c3.5,0,6.1,0.7,7.9,2.2c1.8,1.5,2.6,4,2.6,7.5c0,4.6-0.8,7.5-2.5,8.8
	c-1.7,1.3-4.3,2-8,2h-5.5c-9.1,0-16.1-2.8-21-8.4v17.4c0,14.2-3.6,25-10.8,32.4c-7.2,7.4-17.7,11-31.6,11H-248.6z M-105,537.4
	c8.9,0,16.7,1.2,23.1,3.6c6.5,2.4,11.9,5.7,16.2,9.9c4.3,4.2,7.5,9.3,9.6,15.1c2.1,5.9,3.2,12.3,3.2,19.3c0,8.9-2.1,17.3-6.2,25
	c-4.1,7.7-9.9,14.1-17.2,19.2c0.9-0.2,2.2-0.3,3.9-0.3h36.6c3.5,0,6.1,0.6,7.9,1.8c1.8,1.2,2.6,3.7,2.6,7.4c0,4.4-0.8,7.4-2.5,8.9
	c-1.7,1.6-4.3,2.4-8,2.4h-35c-6.3,0-12.3-0.3-17.9-0.8c-5.6-0.5-11-2.4-16-5.5c-5.8,3.2-12,5-18.5,5.5c-6.6,0.5-12.4,0.8-17.5,0.8
	h-31.8c-7,0-10.5-3.5-10.5-10.5c0-4.4,0.8-7.1,2.5-8.3c1.7-1.1,4.3-1.7,8-1.7h38.7c-7.2-5.1-12.8-11.4-17-19.1
	c-4.1-7.6-6.2-15.9-6.2-24.9c0-7,1.1-13.5,3.2-19.3c2.1-5.9,5.3-10.9,9.6-15.1c4.3-4.2,9.7-7.5,16.2-9.9
	C-121.6,538.6-113.9,537.4-105,537.4z M-105,557.9c-8.4,0-15.3,2.5-20.8,7.4c-5.4,4.9-8.2,12-8.2,21.3c0,9.5,2.8,17.4,8.4,23.8
	c5.6,6.4,12.4,11.2,20.5,14.3c8.1-3.2,14.9-7.9,20.5-14.3c5.6-6.4,8.4-14.3,8.4-23.8c0-9.3-2.7-16.4-8.2-21.3
	C-89.6,560.4-96.6,557.9-105,557.9z M-113.9,516.1c-1.8,0-2.6-0.9-2.6-2.6v-19.2c0-1.8,0.9-2.6,2.6-2.6H-96c1.8,0,2.6,0.9,2.6,2.6
	v19.2c0,1.8-0.9,2.6-2.6,2.6H-113.9z M-34,649.7c-3.5,0-6.1-0.6-7.9-1.8c-1.8-1.2-2.6-3.7-2.6-7.4c0-4.4,0.8-7.4,2.5-8.9
	c1.7-1.6,4.3-2.4,8-2.4h17.9c4.4,0,7.6-1,9.6-3c2-2,3-5.7,3-10.9v-70.5c0-1.8,0.9-2.6,2.6-2.6H16c1.8,0,2.6,0.9,2.6,2.6v66.5
	c0,6,2.1,10.4,6.4,13.4c4.3,3,10,4.5,17.2,4.5h3.2c3.5,0,6.1,0.7,7.9,2.2c1.8,1.5,2.6,4,2.6,7.5c0,4.6-0.8,7.5-2.5,8.8
	c-1.7,1.3-4.3,2-8,2h-5.8c-5.6,0-10.5-1.1-14.7-3.4c-4.2-2.3-7.5-5.7-9.7-10.3c-4.4,9.1-13.5,13.7-27.4,13.7H-34z M-17.9,516.1
	c-1.8,0-2.6-0.9-2.6-2.6v-19.2c0-1.8,0.9-2.6,2.6-2.6H0c1.8,0,2.6,0.9,2.6,2.6v19.2c0,1.8-0.9,2.6-2.6,2.6H-17.9z M14.2,516.1
	c-1.8,0-2.6-0.9-2.6-2.6v-19.2c0-1.8,0.9-2.6,2.6-2.6h17.9c1.8,0,2.6,0.9,2.6,2.6v19.2c0,1.8-0.9,2.6-2.6,2.6H14.2z M45.5,649.7
	c-3.5,0-6.1-0.6-7.9-1.8c-1.8-1.2-2.6-3.7-2.6-7.4c0-4.4,0.8-7.4,2.5-8.9c1.7-1.6,4.3-2.4,8-2.4h16.6c4.4,0,7.6-1,9.6-3
	c2-2,3-5.7,3-10.9V473.5c0-1.8,0.9-2.6,2.6-2.6h16.8c1.8,0,2.6,0.9,2.6,2.6v143.1c0,11.4-2.4,19.8-7.1,25.1c-4.7,5.4-12.6,8-23.7,8
	H45.5z M155.7,647.1c0,1.8-0.9,2.6-2.6,2.6h-16.8c-1.8,0-2.6-0.9-2.6-2.6V473.5c0-1.8,0.9-2.6,2.6-2.6h16.8c1.8,0,2.6,0.9,2.6,2.6
	V647.1z"/>
<g>
	<path class="st0" d="M-1430.3,749.9c0.2-0.7,0.6-1,1.2-1h6.5c0.7,0,1.1,0.3,1.3,1l23.4,66.3c0.2,0.7,0,1-0.7,1h-7
		c-0.7,0-1.1-0.3-1.3-1l-5.2-14.9h-27.6l-5.2,14.9c-0.3,0.7-0.7,1-1.3,1h-7c-0.7,0-0.9-0.3-0.7-1L-1430.3,749.9z M-1415.1,793
		l-10.7-31h-0.2l-10.8,31H-1415.1z"/>
	<path class="st0" d="M-1348.5,749.9c0-0.7,0.3-1,1-1h6.9c0.7,0,1,0.3,1,1v58.3c0,0.4,0.2,0.6,0.6,0.6h32.5c0.7,0,1,0.3,1,1v6.3
		c0,0.7-0.3,1-1,1h-41.1c-0.7,0-1-0.3-1-1V749.9z"/>
	<path class="st0" d="M-1249.9,817.1c-0.7,0-1-0.3-1-1v-58.3c0-0.4-0.2-0.6-0.6-0.6h-18.7c-0.7,0-1-0.3-1-1v-6.3c0-0.7,0.3-1,1-1
		h47.5c0.7,0,1,0.3,1,1v6.3c0,0.7-0.3,1-1,1h-18.7c-0.4,0-0.6,0.2-0.6,0.6v58.3c0,0.7-0.3,1-1,1H-1249.9z"/>
	<path class="st0" d="M-1162,749.9c0.2-0.7,0.6-1,1.2-1h6.5c0.7,0,1.1,0.3,1.3,1l23.4,66.3c0.2,0.7,0,1-0.7,1h-7
		c-0.7,0-1.1-0.3-1.3-1l-5.2-14.9h-27.6l-5.2,14.9c-0.3,0.7-0.7,1-1.3,1h-7c-0.7,0-0.9-0.3-0.7-1L-1162,749.9z M-1146.7,793
		l-10.7-31h-0.2l-10.8,31H-1146.7z"/>
	<path class="st0" d="M-1080.2,749.9c0-0.7,0.3-1,1-1h41.1c0.7,0,1,0.3,1,1v6.3c0,0.7-0.3,1-1,1h-32.5c-0.4,0-0.6,0.2-0.6,0.6v20.8
		c0,0.4,0.2,0.6,0.6,0.6h27.6c0.7,0,1,0.3,1,1v6.3c0,0.7-0.3,1-1,1h-27.6c-0.4,0-0.6,0.2-0.6,0.6v28c0,0.7-0.3,1-1,1h-6.9
		c-0.7,0-1-0.3-1-1V749.9z"/>
	<path class="st0" d="M-974.1,749.9c0.2-0.7,0.6-1,1.2-1h6.5c0.7,0,1.1,0.3,1.3,1l23.4,66.3c0.2,0.7,0,1-0.7,1h-7
		c-0.7,0-1.1-0.3-1.3-1l-5.2-14.9h-27.6l-5.2,14.9c-0.3,0.7-0.7,1-1.3,1h-7c-0.7,0-0.9-0.3-0.7-1L-974.1,749.9z M-958.8,793
		l-10.7-31h-0.2l-10.8,31H-958.8z"/>
	<path class="st0" d="M-852.7,817.1c-0.6,0-1-0.3-1.3-1l-13.7-27.9h-15.1c-0.4,0-0.6,0.2-0.6,0.6v27.3c0,0.7-0.3,1-1,1h-6.9
		c-0.7,0-1-0.3-1-1v-66.3c0-0.7,0.3-1,1-1h24.7c3.2,0,6.1,0.5,8.7,1.4c2.6,0.9,4.9,2.3,6.7,4c1.9,1.7,3.3,3.8,4.4,6.2
		c1,2.4,1.6,5.1,1.6,8.1c0,4.6-1.2,8.5-3.6,11.7c-2.4,3.2-5.7,5.5-9.8,6.8l14.6,28.8c0.2,0.3,0.2,0.6,0.1,0.9
		c-0.1,0.2-0.4,0.4-0.7,0.4H-852.7z M-866.8,779.9c4,0,7.1-1,9.3-3c2.2-2,3.3-4.8,3.3-8.4s-1.1-6.4-3.3-8.4c-2.2-2-5.3-3-9.3-3h-16
		c-0.4,0-0.6,0.2-0.6,0.6v21.5c0,0.4,0.2,0.6,0.6,0.6H-866.8z"/>
	<path class="st0" d="M-752.2,817.1c-0.6,0-1-0.3-1.3-1l-13.7-27.9h-15.1c-0.4,0-0.6,0.2-0.6,0.6v27.3c0,0.7-0.3,1-1,1h-6.9
		c-0.7,0-1-0.3-1-1v-66.3c0-0.7,0.3-1,1-1h24.7c3.2,0,6.1,0.5,8.7,1.4c2.6,0.9,4.9,2.3,6.7,4c1.9,1.7,3.3,3.8,4.4,6.2
		c1,2.4,1.6,5.1,1.6,8.1c0,4.6-1.2,8.5-3.6,11.7c-2.4,3.2-5.7,5.5-9.8,6.8l14.6,28.8c0.2,0.3,0.2,0.6,0.1,0.9
		c-0.1,0.2-0.4,0.4-0.7,0.4H-752.2z M-766.2,779.9c4,0,7.1-1,9.3-3c2.2-2,3.3-4.8,3.3-8.4s-1.1-6.4-3.3-8.4c-2.2-2-5.3-3-9.3-3h-16
		c-0.4,0-0.6,0.2-0.6,0.6v21.5c0,0.4,0.2,0.6,0.6,0.6H-766.2z"/>
	<path class="st0" d="M-668.6,818.2c-5.8,0-10.6-1.3-14.6-4c-4-2.7-6.8-6.7-8.6-12c-0.3-1-0.6-2-0.9-3.1c-0.2-1.1-0.4-2.3-0.6-3.8
		c-0.1-1.4-0.2-3.2-0.3-5.2c-0.1-2-0.1-4.4-0.1-7.2c0-2.8,0-5.2,0.1-7.2c0.1-2,0.2-3.7,0.3-5.2c0.1-1.4,0.3-2.7,0.6-3.8
		c0.2-1.1,0.5-2.1,0.9-3.1c1.7-5.3,4.6-9.3,8.6-12c4-2.7,8.9-4,14.6-4c5.8,0,10.7,1.3,14.7,4c4,2.7,6.8,6.7,8.6,12
		c0.3,1,0.6,2,0.9,3.1c0.2,1.1,0.4,2.3,0.6,3.8c0.1,1.4,0.2,3.2,0.3,5.2c0.1,2,0.1,4.4,0.1,7.2c0,2.8,0,5.2-0.1,7.2
		c-0.1,2-0.2,3.7-0.3,5.2c-0.1,1.4-0.3,2.7-0.6,3.8c-0.2,1.1-0.5,2.1-0.9,3.1c-1.7,5.3-4.6,9.3-8.6,12
		C-657.9,816.9-662.8,818.2-668.6,818.2z M-668.6,809.9c3.8,0,6.9-0.9,9.3-2.6c2.4-1.7,4.2-4.3,5.2-7.5c0.2-0.6,0.4-1.4,0.6-2.3
		c0.2-0.9,0.3-2,0.5-3.4c0.2-1.3,0.3-2.9,0.4-4.7c0.1-1.8,0.1-3.9,0.1-6.4c0-2.5,0-4.6-0.1-6.4c-0.1-1.8-0.2-3.4-0.4-4.7
		c-0.2-1.3-0.3-2.5-0.5-3.4c-0.2-0.9-0.4-1.7-0.6-2.3c-1.1-3.3-2.8-5.8-5.2-7.5c-2.4-1.7-5.5-2.6-9.3-2.6s-6.9,0.9-9.3,2.6
		c-2.4,1.7-4.1,4.3-5.2,7.5c-0.2,0.6-0.4,1.4-0.6,2.3c-0.2,0.9-0.3,2-0.5,3.4c-0.2,1.3-0.3,2.9-0.4,4.7c-0.1,1.8-0.1,4-0.1,6.4
		c0,2.5,0,4.6,0.1,6.4c0.1,1.8,0.2,3.4,0.4,4.7c0.2,1.3,0.3,2.5,0.5,3.4c0.2,0.9,0.4,1.7,0.6,2.3c1.1,3.3,2.8,5.8,5.2,7.5
		C-675.5,809-672.4,809.9-668.6,809.9z"/>
	<path class="st0" d="M-590.5,749.9c0-0.7,0.3-1,1-1h23c11.7,0,19.1,4.9,22.3,14.6c0.3,0.9,0.5,1.9,0.8,2.9c0.2,1,0.4,2.2,0.6,3.7
		c0.2,1.5,0.3,3.2,0.4,5.3c0.1,2.1,0.1,4.6,0.1,7.6s0,5.6-0.1,7.6c-0.1,2.1-0.2,3.9-0.4,5.3c-0.2,1.5-0.4,2.7-0.6,3.7
		c-0.2,1-0.5,2-0.8,2.9c-3.1,9.7-10.6,14.6-22.3,14.6h-23c-0.7,0-1-0.3-1-1V749.9z M-581.6,808.2c0,0.4,0.2,0.6,0.6,0.6h12.6
		c4.1,0,7.5-0.7,10-2.2c2.5-1.4,4.4-3.8,5.5-7.2c0.2-0.6,0.4-1.3,0.6-2.1s0.4-1.8,0.5-3.1c0.1-1.2,0.2-2.8,0.3-4.6
		c0.1-1.8,0.1-4.1,0.1-6.7c0-2.7,0-4.9-0.1-6.7c-0.1-1.8-0.2-3.3-0.3-4.6c-0.1-1.2-0.3-2.3-0.5-3.1c-0.2-0.8-0.4-1.5-0.6-2.1
		c-1.1-3.3-3-5.7-5.5-7.2c-2.5-1.4-5.9-2.2-10-2.2H-581c-0.4,0-0.6,0.2-0.6,0.6V808.2z"/>
	<path class="st0" d="M-426.7,749.9c0-0.7,0.3-1,1-1h41.1c0.7,0,1,0.3,1,1v6.3c0,0.7-0.3,1-1,1h-32.5c-0.4,0-0.6,0.2-0.6,0.6v20.8
		c0,0.4,0.2,0.6,0.6,0.6h27.6c0.7,0,1,0.3,1,1v6.3c0,0.7-0.3,1-1,1h-27.6c-0.4,0-0.6,0.2-0.6,0.6v28c0,0.7-0.3,1-1,1h-6.9
		c-0.7,0-1-0.3-1-1V749.9z"/>
	<path class="st0" d="M-309.7,818.2c-5.8,0-10.6-1.3-14.6-4c-4-2.7-6.8-6.7-8.6-12c-0.3-1-0.6-2-0.9-3.1c-0.2-1.1-0.4-2.3-0.6-3.8
		c-0.1-1.4-0.2-3.2-0.3-5.2c-0.1-2-0.1-4.4-0.1-7.2c0-2.8,0-5.2,0.1-7.2c0.1-2,0.2-3.7,0.3-5.2c0.1-1.4,0.3-2.7,0.6-3.8
		c0.2-1.1,0.5-2.1,0.9-3.1c1.7-5.3,4.6-9.3,8.6-12c4-2.7,8.9-4,14.6-4c5.8,0,10.7,1.3,14.7,4c4,2.7,6.8,6.7,8.6,12
		c0.3,1,0.6,2,0.9,3.1c0.2,1.1,0.4,2.3,0.6,3.8c0.1,1.4,0.2,3.2,0.3,5.2c0.1,2,0.1,4.4,0.1,7.2c0,2.8,0,5.2-0.1,7.2
		c-0.1,2-0.2,3.7-0.3,5.2c-0.1,1.4-0.3,2.7-0.6,3.8c-0.2,1.1-0.5,2.1-0.9,3.1c-1.7,5.3-4.6,9.3-8.6,12
		C-299,816.9-303.9,818.2-309.7,818.2z M-309.7,809.9c3.8,0,6.9-0.9,9.3-2.6c2.4-1.7,4.2-4.3,5.2-7.5c0.2-0.6,0.4-1.4,0.6-2.3
		c0.2-0.9,0.3-2,0.5-3.4c0.2-1.3,0.3-2.9,0.4-4.7c0.1-1.8,0.1-3.9,0.1-6.4c0-2.5,0-4.6-0.1-6.4c-0.1-1.8-0.2-3.4-0.4-4.7
		c-0.2-1.3-0.3-2.5-0.5-3.4c-0.2-0.9-0.4-1.7-0.6-2.3c-1.1-3.3-2.8-5.8-5.2-7.5c-2.4-1.7-5.5-2.6-9.3-2.6s-6.9,0.9-9.3,2.6
		c-2.4,1.7-4.1,4.3-5.2,7.5c-0.2,0.6-0.4,1.4-0.6,2.3c-0.2,0.9-0.3,2-0.5,3.4c-0.2,1.3-0.3,2.9-0.4,4.7c-0.1,1.8-0.1,4-0.1,6.4
		c0,2.5,0,4.6,0.1,6.4c0.1,1.8,0.2,3.4,0.4,4.7c0.2,1.3,0.3,2.5,0.5,3.4c0.2,0.9,0.4,1.7,0.6,2.3c1.1,3.3,2.8,5.8,5.2,7.5
		C-316.6,809-313.5,809.9-309.7,809.9z"/>
	<path class="st0" d="M-192,817.1c-0.6,0-1-0.3-1.3-1l-13.7-27.9H-222c-0.4,0-0.6,0.2-0.6,0.6v27.3c0,0.7-0.3,1-1,1h-6.9
		c-0.7,0-1-0.3-1-1v-66.3c0-0.7,0.3-1,1-1h24.7c3.2,0,6.1,0.5,8.7,1.4c2.6,0.9,4.9,2.3,6.7,4c1.9,1.7,3.3,3.8,4.4,6.2
		c1,2.4,1.6,5.1,1.6,8.1c0,4.6-1.2,8.5-3.6,11.7c-2.4,3.2-5.7,5.5-9.8,6.8l14.6,28.8c0.2,0.3,0.2,0.6,0.1,0.9
		c-0.1,0.2-0.4,0.4-0.7,0.4H-192z M-206.1,779.9c4,0,7.1-1,9.3-3c2.2-2,3.3-4.8,3.3-8.4s-1.1-6.4-3.3-8.4c-2.2-2-5.3-3-9.3-3h-16
		c-0.4,0-0.6,0.2-0.6,0.6v21.5c0,0.4,0.2,0.6,0.6,0.6H-206.1z"/>
	<path class="st0" d="M-28.8,817.1c-0.6,0-1-0.3-1.3-1l-13.7-27.9h-15.1c-0.4,0-0.6,0.2-0.6,0.6v27.3c0,0.7-0.3,1-1,1h-6.9
		c-0.7,0-1-0.3-1-1v-66.3c0-0.7,0.3-1,1-1h24.7c3.2,0,6.1,0.5,8.7,1.4c2.6,0.9,4.9,2.3,6.7,4c1.9,1.7,3.3,3.8,4.4,6.2
		c1,2.4,1.6,5.1,1.6,8.1c0,4.6-1.2,8.5-3.6,11.7c-2.4,3.2-5.7,5.5-9.8,6.8l14.6,28.8c0.2,0.3,0.2,0.6,0.1,0.9
		c-0.1,0.2-0.4,0.4-0.7,0.4H-28.8z M-42.9,779.9c4,0,7.1-1,9.3-3c2.2-2,3.3-4.8,3.3-8.4s-1.1-6.4-3.3-8.4c-2.2-2-5.3-3-9.3-3h-16
		c-0.4,0-0.6,0.2-0.6,0.6v21.5c0,0.4,0.2,0.6,0.6,0.6H-42.9z"/>
	<path class="st0" d="M32.1,749.9c0-0.7,0.3-1,1-1h41.1c0.7,0,1,0.3,1,1v6.3c0,0.7-0.3,1-1,1H41.7c-0.4,0-0.6,0.2-0.6,0.6v20.1
		c0,0.4,0.2,0.6,0.6,0.6h27.6c0.7,0,1,0.3,1,1v6.3c0,0.7-0.3,1-1,1H41.7c-0.4,0-0.6,0.2-0.6,0.6v20.8c0,0.4,0.2,0.6,0.6,0.6h32.5
		c0.7,0,1,0.3,1,1v6.3c0,0.7-0.3,1-1,1H33.1c-0.7,0-1-0.3-1-1V749.9z"/>
	<path class="st0" d="M126.6,802.2c-0.3-1-0.6-2-0.9-3.1c-0.2-1-0.4-2.3-0.6-3.7c-0.1-1.4-0.2-3.2-0.3-5.2c-0.1-2-0.1-4.4-0.1-7.2
		c0-2.8,0-5.2,0.1-7.2c0.1-2,0.2-3.7,0.3-5.2c0.1-1.4,0.3-2.7,0.6-3.7c0.2-1,0.5-2.1,0.9-3.1c1.7-5.4,4.6-9.5,8.4-12.1
		c3.9-2.6,8.6-4,14.3-4c5.1,0,9.5,1.2,13.3,3.6c3.8,2.4,6.6,5.8,8.6,10.2c0.2,0.6,0.1,1-0.4,1.3l-6,2.9c-0.7,0.3-1.1,0.2-1.4-0.5
		c-1.3-2.7-3.1-4.9-5.3-6.6c-2.2-1.7-5.1-2.6-8.7-2.6c-3.8,0-6.8,0.9-9,2.6c-2.3,1.7-4,4.2-5.1,7.4c-0.2,0.7-0.4,1.5-0.6,2.4
		c-0.2,0.8-0.3,1.9-0.4,3.1c-0.1,1.2-0.2,2.8-0.3,4.6c-0.1,1.8-0.1,4.1-0.1,6.8c0,2.7,0,4.9,0.1,6.8c0.1,1.8,0.2,3.4,0.3,4.6
		c0.1,1.2,0.2,2.3,0.4,3.2c0.2,0.9,0.4,1.6,0.6,2.3c1.1,3.2,2.8,5.7,5.1,7.4c2.3,1.7,5.3,2.6,9,2.6c3.6,0,6.5-0.9,8.7-2.6
		c2.2-1.7,4-3.9,5.3-6.6c0.3-0.7,0.7-0.8,1.4-0.5l6,2.9c0.5,0.3,0.6,0.7,0.4,1.3c-1.9,4.4-4.8,7.8-8.6,10.2
		c-3.8,2.4-8.2,3.6-13.3,3.6c-5.6,0-10.4-1.3-14.3-4C131.2,811.6,128.4,807.6,126.6,802.2z"/>
</g>
<g>
	<defs>
		<rect id="SVGID_1_" x="-2104.2" y="-2015" width="5352.9" height="12205.2"/>
	</defs>
	<clipPath id="SVGID_2_">
		<use xlink:href="#SVGID_1_"  style="overflow:visible;"/>
	</clipPath>
	<path class="st1" d="M553.9,626.6c-14.7,10.1-18.4,30.2-8.3,44.9c10.1,14.7,30.2,18.4,44.9,8.3c14.7-10.1,18.4-30.2,8.3-44.9
		C588.6,620.2,568.6,616.5,553.9,626.6"/>
	<path class="st2" d="M597.3,558.5L597.3,558.5c6.7-5.6,16.7-4.8,22.4,2l25.5,30.4c5.6,6.7,4.8,16.7-2,22.4
		c-6.7,5.6-16.7,4.8-22.4-2l-25.5-30.4C589.7,574.1,590.6,564.1,597.3,558.5"/>
	<path class="st2" d="M598.3,739.8L598.3,739.8c-2.3,8.5-11,13.5-19.4,11.2l-38.4-10.3c-8.5-2.3-13.5-11-11.2-19.4
		c2.3-8.5,11-13.5,19.4-11.2l38.4,10.3C595.5,722.6,600.5,731.3,598.3,739.8"/>
	<path class="st2" d="M493.5,591.8L493.5,591.8c-3-8.2,1.2-17.3,9.5-20.3l37.3-13.6c8.2-3,17.3,1.2,20.3,9.5
		c3,8.2-1.2,17.3-9.5,20.3l-37.3,13.6C505.6,604.3,496.5,600.1,493.5,591.8"/>
	<path class="st2" d="M664.2,652.9L664.2,652.9c7.2,5,8.9,14.9,3.9,22.1l-22.8,32.6c-5,7.2-14.9,8.9-22.1,3.9
		c-7.2-5-8.9-14.9-3.9-22.1l22.8-32.6C647.1,649.6,657,647.9,664.2,652.9"/>
	<path class="st2" d="M489.3,700.8L489.3,700.8c-8.8,0-15.9-7.1-15.9-15.9v-39.7c0-8.8,7.1-15.9,15.9-15.9c8.8,0,15.9,7.1,15.9,15.9
		v39.7C505.2,693.7,498.1,700.8,489.3,700.8"/>
	<path class="st2" d="M728.1,609.7L728.1,609.7c7.7-2.8,16.1,1.2,18.9,8.8l12.6,34.7c2.8,7.7-1.2,16.1-8.8,18.9
		c-7.7,2.8-16.1-1.2-18.9-8.8l-12.6-34.7C716.5,620.9,720.5,612.5,728.1,609.7"/>
	<path class="st2" d="M431.8,746.7L431.8,746.7c-6.2,5.2-15.6,4.4-20.8-1.8l-23.8-28.3c-5.2-6.2-4.4-15.6,1.8-20.8
		c6.2-5.2,15.6-4.4,20.8,1.8l23.8,28.3C438.9,732.2,438.1,741.5,431.8,746.7"/>
	<path class="st2" d="M663.4,516.6L663.4,516.6c4.1-7.1,13.1-9.5,20.2-5.4l32,18.5c7.1,4.1,9.5,13.1,5.4,20.2
		c-4.1,7.1-13.1,9.5-20.2,5.4l-32-18.5C661.7,532.7,659.3,523.7,663.4,516.6"/>
	<path class="st2" d="M524.5,812L524.5,812c-1.4,8-9.1,13.4-17.1,12l-36.4-6.4c-8-1.4-13.4-9.1-12-17.1c1.4-8,9.1-13.4,17.1-12
		l36.4,6.4C520.5,796.4,525.9,804,524.5,812"/>
	<path class="st2" d="M554,486.9L554,486.9c-1.4-8,3.9-15.7,12-17.1l36.4-6.4c8-1.4,15.7,3.9,17.1,12c1.4,8-3.9,15.7-12,17.1
		l-36.4,6.4C563,500.3,555.4,494.9,554,486.9"/>
	<path class="st2" d="M637.5,802.5L637.5,802.5c4.1,7.1,1.7,16.1-5.4,20.2l-32,18.5c-7.1,4.1-16.1,1.7-20.2-5.4
		c-4.1-7.1-1.7-16.1,5.4-20.2l32-18.5C624.4,793,633.4,795.5,637.5,802.5"/>
	<path class="st2" d="M451.1,534.5L451.1,534.5c-6.2-5.2-7.1-14.5-1.8-20.8l23.8-28.3c5.2-6.2,14.5-7.1,20.8-1.8
		c6.2,5.2,7.1,14.5,1.8,20.8l-23.8,28.3C466.6,538.9,457.3,539.7,451.1,534.5"/>
	<path class="st2" d="M717.9,722.6L717.9,722.6c7.7,2.8,11.6,11.3,8.8,18.9l-12.6,34.7c-2.8,7.7-11.3,11.6-18.9,8.8
		c-7.7-2.8-11.6-11.3-8.8-18.9l12.6-34.7C701.8,723.8,710.2,719.8,717.9,722.6"/>
	<path class="st2" d="M402.8,637.1L402.8,637.1c-8.1,0-14.8-6.6-14.8-14.8v-37c0-8.1,6.6-14.8,14.8-14.8c8.1,0,14.8,6.6,14.8,14.8
		v37C417.6,630.5,411,637.1,402.8,637.1"/>
	<path class="st2" d="M798.7,697L798.7,697c11.1,0.9,19.4,10.7,18.5,21.8l-4.1,50.6c-0.9,11.1-10.7,19.4-21.8,18.5
		c-11.1-0.9-19.4-10.7-18.5-21.8l4.1-50.6C777.8,704.4,787.6,696.1,798.7,697"/>
	<path class="st2" d="M350.8,698.2L350.8,698.2c-10.8,3-21.9-3.4-24.9-14.2l-13.4-48.9c-3-10.8,3.4-21.9,14.2-24.9
		c10.8-3,21.9,3.4,24.9,14.2l13.4,48.9C367.9,684.1,361.6,695.2,350.8,698.2"/>
	<path class="st2" d="M771.3,543.9L771.3,543.9c9.1-6.5,21.8-4.3,28.2,4.8l29.3,41.4c6.5,9.1,4.3,21.8-4.8,28.2
		c-9.1,6.5-21.8,4.3-28.2-4.8l-29.3-41.4C760.1,563,762.2,550.3,771.3,543.9"/>
	<path class="st2" d="M428.9,832.7L428.9,832.7c-6.4,9.2-19,11.5-28.2,5.1L359,809c-9.2-6.4-11.5-19-5.1-28.2
		c6.4-9.2,19-11.5,28.2-5.1l41.7,28.9C433,810.9,435.3,823.5,428.9,832.7"/>
	<path class="st2" d="M651.9,444.2L651.9,444.2c2.8-10.8,13.9-17.3,24.7-14.5l49.1,12.8c10.8,2.8,17.3,13.9,14.5,24.7
		c-2.8,10.8-13.9,17.3-24.7,14.5l-49.1-12.8C655.5,466.1,649.1,455,651.9,444.2"/>
	<path class="st2" d="M575.2,885.5L575.2,885.5c1,11.1-7.1,21-18.3,22l-50.5,4.7c-11.1,1-21-7.1-22-18.3c-1-11.1,7.1-21,18.3-22
		l50.5-4.7C564.3,866.2,574.2,874.4,575.2,885.5"/>
	<path class="st2" d="M496.3,444.6L496.3,444.6c-4.8-10.1-0.5-22.2,9.6-27l45.9-21.7c10.1-4.8,22.2-0.5,27,9.6
		c4.8,10.1,0.5,22.2-9.6,27l-45.9,21.7C513.2,459,501.1,454.7,496.3,444.6"/>
	<path class="st2" d="M721.3,831.9L721.3,831.9c8,7.9,8,20.7,0.2,28.6l-35.7,36.1c-7.9,8-20.7,8-28.6,0.2c-8-7.9-8-20.7-0.2-28.6
		l35.7-36.1C700.5,824.2,713.3,824.1,721.3,831.9"/>
	<path class="st2" d="M377.4,544.9L377.4,544.9c-10.2-4.7-14.6-16.7-10-26.9l21.2-46.1c4.7-10.2,16.7-14.6,26.9-9.9
		c10.2,4.7,14.6,16.7,10,26.9l-21.2,46.1C399.6,545.1,387.6,549.5,377.4,544.9"/>
</g>
<path class="st0" d="M21.4,24c-0.8,0-1.4-0.1-2-0.4c-0.6-0.2-1-0.6-1.4-1.2c-0.1,0.2-0.3,0.4-0.5,0.5c-0.2,0.1-0.4,0.2-0.6,0.3
	c-0.2,0.1-0.3,0.3-0.5,0.5c-0.1,0.2-0.2,0.5-0.2,0.9v3.6h-1.8v-4c0-0.4,0.1-0.8,0.2-1.1c0.1-0.3,0.3-0.5,0.5-0.7
	c0.2-0.2,0.4-0.4,0.7-0.5c0.2-0.1,0.5-0.3,0.7-0.4c0.2-0.1,0.4-0.3,0.5-0.4c0.2-0.2,0.2-0.4,0.3-0.7c0-0.2,0-0.3,0-0.5
	c0-0.2,0-0.3,0-0.5c0-1.7,0.4-2.9,1.1-3.6c0.7-0.7,1.8-1.1,3-1.1c1.3,0,2.3,0.4,3,1.1c0.7,0.7,1.1,2,1.1,3.6c0,0.8-0.1,1.5-0.3,2.1
	c-0.2,0.6-0.5,1.1-0.8,1.5c-0.4,0.4-0.8,0.7-1.3,0.8C22.6,23.9,22,24,21.4,24z M21.4,16.2c-0.8,0-1.4,0.3-1.8,0.8
	c-0.4,0.5-0.6,1.3-0.6,2.2c0,1,0.2,1.8,0.6,2.3c0.4,0.5,1,0.7,1.8,0.7c0.8,0,1.4-0.2,1.8-0.7c0.4-0.5,0.6-1.2,0.6-2.3
	c0-1-0.2-1.7-0.6-2.2C22.8,16.5,22.2,16.2,21.4,16.2z M30.1,23.6c0,0.1-0.1,0.2-0.2,0.2h-1.4c-0.1,0-0.2-0.1-0.2-0.2V9.2
	c0-0.1,0.1-0.2,0.2-0.2h1.4c0.1,0,0.2,0.1,0.2,0.2V23.6z M41,20.6c0,0.5,0.2,0.9,0.5,1.1c0.4,0.2,0.8,0.4,1.4,0.4h0.2
	c0.3,0,0.5,0.1,0.7,0.2c0.1,0.1,0.2,0.3,0.2,0.6c0,0.4-0.1,0.6-0.2,0.7c-0.1,0.1-0.4,0.2-0.7,0.2h-0.5c-0.5,0-0.9-0.1-1.3-0.3
	c-0.4-0.2-0.7-0.5-0.8-0.9c-0.2,0.5-0.6,0.8-1,1c-0.4,0.2-1,0.3-1.7,0.3h-4.8c-0.1,0-0.2-0.1-0.2-0.2v-1.3c0-0.1,0.1-0.2,0.2-0.2
	h4.2c0.4,0,0.7,0,1-0.1c0.2-0.1,0.4-0.2,0.6-0.3c0.1-0.2,0.2-0.4,0.3-0.6c0-0.2,0.1-0.6,0.1-0.9v-1.7c0-1.5-0.8-2.2-2.5-2.2h-2.5
	c-0.1,0-0.2-0.1-0.2-0.2v-1.3c0-0.1,0.1-0.2,0.2-0.2h3.2c1.1,0,2,0.3,2.7,0.9c0.7,0.6,1.1,1.6,1.1,2.9V20.6z M48.8,14.5
	c0.7,0,1.4,0.1,1.9,0.3c0.5,0.2,1,0.5,1.3,0.8c0.4,0.3,0.6,0.8,0.8,1.3c0.2,0.5,0.3,1,0.3,1.6c0,0.7-0.2,1.4-0.5,2.1
	c-0.3,0.6-0.8,1.2-1.4,1.6c0.1,0,0.2,0,0.3,0h3c0.3,0,0.5,0.1,0.7,0.2c0.1,0.1,0.2,0.3,0.2,0.6c0,0.4-0.1,0.6-0.2,0.7
	c-0.1,0.1-0.4,0.2-0.7,0.2h-2.9c-0.5,0-1,0-1.5-0.1c-0.5,0-0.9-0.2-1.3-0.5c-0.5,0.3-1,0.4-1.5,0.5c-0.5,0-1,0.1-1.4,0.1h-2.6
	c-0.6,0-0.9-0.3-0.9-0.9c0-0.4,0.1-0.6,0.2-0.7c0.1-0.1,0.4-0.1,0.7-0.1h3.2c-0.6-0.4-1.1-0.9-1.4-1.6c-0.3-0.6-0.5-1.3-0.5-2.1
	c0-0.6,0.1-1.1,0.3-1.6c0.2-0.5,0.4-0.9,0.8-1.3c0.4-0.3,0.8-0.6,1.3-0.8C47.4,14.6,48.1,14.5,48.8,14.5z M48.8,16.2
	c-0.7,0-1.3,0.2-1.7,0.6c-0.5,0.4-0.7,1-0.7,1.8c0,0.8,0.2,1.4,0.7,2c0.5,0.5,1,0.9,1.7,1.2c0.7-0.3,1.2-0.7,1.7-1.2
	c0.5-0.5,0.7-1.2,0.7-2c0-0.8-0.2-1.4-0.7-1.8C50.1,16.4,49.5,16.2,48.8,16.2z M46.8,12.7c-0.1,0-0.2-0.1-0.2-0.2v-1.6
	c0-0.1,0.1-0.2,0.2-0.2h1.5c0.1,0,0.2,0.1,0.2,0.2v1.6c0,0.1-0.1,0.2-0.2,0.2H46.8z M49.4,12.7c-0.1,0-0.2-0.1-0.2-0.2v-1.6
	c0-0.1,0.1-0.2,0.2-0.2h1.5c0.1,0,0.2,0.1,0.2,0.2v1.6c0,0.1-0.1,0.2-0.2,0.2H49.4z M54.7,23.8c-0.3,0-0.5-0.1-0.7-0.2
	c-0.1-0.1-0.2-0.3-0.2-0.6c0-0.4,0.1-0.6,0.2-0.7c0.1-0.1,0.4-0.2,0.7-0.2h1.5c0.4,0,0.6-0.1,0.8-0.3c0.2-0.2,0.3-0.5,0.3-0.9v-5.8
	c0-0.1,0.1-0.2,0.2-0.2h1.4c0.1,0,0.2,0.1,0.2,0.2v5.5c0,0.5,0.2,0.9,0.5,1.1c0.4,0.2,0.8,0.4,1.4,0.4h0.3c0.3,0,0.5,0.1,0.7,0.2
	c0.1,0.1,0.2,0.3,0.2,0.6c0,0.4-0.1,0.6-0.2,0.7c-0.1,0.1-0.4,0.2-0.7,0.2h-0.5c-0.5,0-0.9-0.1-1.2-0.3c-0.3-0.2-0.6-0.5-0.8-0.8
	c-0.4,0.8-1.1,1.1-2.3,1.1H54.7z M56,12.7c-0.1,0-0.2-0.1-0.2-0.2v-1.6c0-0.1,0.1-0.2,0.2-0.2h1.5c0.1,0,0.2,0.1,0.2,0.2v1.6
	c0,0.1-0.1,0.2-0.2,0.2H56z M58.7,12.7c-0.1,0-0.2-0.1-0.2-0.2v-1.6c0-0.1,0.1-0.2,0.2-0.2h1.5c0.1,0,0.2,0.1,0.2,0.2v1.6
	c0,0.1-0.1,0.2-0.2,0.2H58.7z M67.9,23.8c-0.5,0-0.9-0.1-1.2-0.3c-0.3-0.2-0.6-0.5-0.8-0.8c-0.4,0.8-1.1,1.1-2.3,1.1h-2.4
	c-0.3,0-0.5-0.1-0.7-0.2c-0.1-0.1-0.2-0.3-0.2-0.6c0-0.4,0.1-0.6,0.2-0.7c0.1-0.1,0.4-0.2,0.7-0.2h2c0.4,0,0.6-0.1,0.8-0.3
	c0.2-0.2,0.3-0.5,0.3-0.9v-4c0-0.1,0.1-0.2,0.2-0.2H66c0.1,0,0.2,0.1,0.2,0.2v3.6c0,0.5,0.2,0.9,0.5,1.1c0.3,0.2,0.8,0.4,1.4,0.4
	h0.5c0.4,0,0.6-0.1,0.8-0.3c0.2-0.2,0.3-0.5,0.3-0.9v-4c0-0.1,0.1-0.2,0.2-0.2h1.4c0.1,0,0.2,0.1,0.2,0.2v3.6c0,0.5,0.2,0.9,0.5,1.1
	c0.3,0.2,0.8,0.4,1.4,0.4H74c0.4,0,0.6-0.1,0.8-0.3c0.2-0.2,0.3-0.5,0.3-0.9v-5.8c0-0.1,0.1-0.2,0.2-0.2h1.4c0.1,0,0.2,0.1,0.2,0.2
	v5.9c0,0.9-0.2,1.6-0.6,2.1c-0.4,0.4-1,0.7-2,0.7h-1c-0.5,0-0.9-0.1-1.2-0.3c-0.3-0.2-0.6-0.5-0.8-0.8c-0.4,0.8-1.1,1.1-2.3,1.1
	H67.9z M85.5,22.1H88c0.4,0,0.6-0.1,0.8-0.3c0.2-0.2,0.3-0.5,0.3-0.9V9.2c0-0.1,0.1-0.2,0.2-0.2h1.4c0.1,0,0.2,0.1,0.2,0.2v11.7
	c0.1,0.4,0.3,0.7,0.6,0.9c0.3,0.2,0.8,0.3,1.3,0.3h0.2c0.3,0,0.5,0.1,0.7,0.2c0.1,0.1,0.2,0.3,0.2,0.6c0,0.4-0.1,0.6-0.2,0.7
	c-0.1,0.1-0.4,0.2-0.7,0.2h-0.5c-0.5,0-0.8-0.1-1.2-0.3c-0.3-0.2-0.6-0.5-0.8-0.8c-0.3,0.7-1.1,1.1-2.2,1.1h-9
	c-0.1,0-0.2-0.1-0.2-0.2v-1.3c0-0.1,0.1-0.2,0.2-0.2h4.3v-9.8c0-0.1,0.1-0.2,0.2-0.2h1.4c0.1,0,0.2,0.1,0.2,0.2V22.1z M93.1,23.8
	c-0.3,0-0.5-0.1-0.7-0.2c-0.1-0.1-0.2-0.3-0.2-0.6c0-0.4,0.1-0.6,0.2-0.7c0.1-0.1,0.4-0.2,0.7-0.2h1.4c0.4,0,0.6-0.1,0.8-0.3
	c0.2-0.2,0.3-0.5,0.3-0.9V9.2c0-0.1,0.1-0.2,0.2-0.2h1.4c0.1,0,0.2,0.1,0.2,0.2v11.8c0,0.9-0.2,1.6-0.6,2.1c-0.4,0.4-1,0.7-2,0.7
	H93.1z M113.5,20.1c0,0.7-0.1,1.3-0.2,1.8c-0.1,0.5-0.3,0.9-0.6,1.1s-0.6,0.5-1,0.6c-0.4,0.1-0.9,0.2-1.4,0.2h-4.8
	c-0.1,0-0.2-0.1-0.2-0.2v-1.3c0-0.1,0.1-0.2,0.2-0.2h4.2c0.4,0,0.7,0,1-0.1c0.2-0.1,0.4-0.2,0.6-0.3c0.1-0.2,0.2-0.4,0.3-0.6
	c0-0.2,0.1-0.6,0.1-0.9v-1.7c0-1.5-0.8-2.2-2.5-2.2h-2.5c-0.1,0-0.2-0.1-0.2-0.2v-1.3c0-0.1,0.1-0.2,0.2-0.2h3.2
	c1.1,0,2,0.3,2.7,0.9c0.7,0.6,1.1,1.6,1.1,2.9V20.1z M114.9,28.1c-0.1,0-0.2-0.1-0.2-0.2v-1.3c0-0.1,0.1-0.2,0.2-0.2h0.5
	c1.2,0,1.8-0.6,1.8-1.9v-9.5c0-0.1,0.1-0.2,0.2-0.2h1.4c0.1,0,0.2,0.1,0.2,0.2v5.5c0,0.5,0.2,0.9,0.5,1.1c0.4,0.2,0.8,0.4,1.4,0.4
	h0.2c0.3,0,0.5,0.1,0.7,0.2c0.1,0.1,0.2,0.3,0.2,0.6c0,0.4-0.1,0.6-0.2,0.7c-0.1,0.1-0.4,0.2-0.7,0.2h-0.5c-0.8,0-1.3-0.2-1.7-0.7
	v1.4c0,1.2-0.3,2.1-0.9,2.7c-0.6,0.6-1.5,0.9-2.6,0.9H114.9z M126.8,14.5c0.7,0,1.4,0.1,1.9,0.3c0.5,0.2,1,0.5,1.3,0.8
	c0.4,0.3,0.6,0.8,0.8,1.3c0.2,0.5,0.3,1,0.3,1.6c0,0.7-0.2,1.4-0.5,2.1c-0.3,0.6-0.8,1.2-1.4,1.6c0.1,0,0.2,0,0.3,0h3
	c0.3,0,0.5,0.1,0.7,0.2c0.1,0.1,0.2,0.3,0.2,0.6c0,0.4-0.1,0.6-0.2,0.7c-0.1,0.1-0.4,0.2-0.7,0.2h-2.9c-0.5,0-1,0-1.5-0.1
	c-0.5,0-0.9-0.2-1.3-0.5c-0.5,0.3-1,0.4-1.5,0.5c-0.5,0-1,0.1-1.4,0.1h-2.6c-0.6,0-0.9-0.3-0.9-0.9c0-0.4,0.1-0.6,0.2-0.7
	c0.1-0.1,0.4-0.1,0.7-0.1h3.2c-0.6-0.4-1.1-0.9-1.4-1.6c-0.3-0.6-0.5-1.3-0.5-2.1c0-0.6,0.1-1.1,0.3-1.6c0.2-0.5,0.4-0.9,0.8-1.3
	c0.4-0.3,0.8-0.6,1.3-0.8C125.4,14.6,126.1,14.5,126.8,14.5z M126.8,16.2c-0.7,0-1.3,0.2-1.7,0.6c-0.5,0.4-0.7,1-0.7,1.8
	c0,0.8,0.2,1.4,0.7,2c0.5,0.5,1,0.9,1.7,1.2c0.7-0.3,1.2-0.7,1.7-1.2c0.5-0.5,0.7-1.2,0.7-2c0-0.8-0.2-1.4-0.7-1.8
	C128.1,16.4,127.5,16.2,126.8,16.2z M126.1,12.7c-0.1,0-0.2-0.1-0.2-0.2v-1.6c0-0.1,0.1-0.2,0.2-0.2h1.5c0.1,0,0.2,0.1,0.2,0.2v1.6
	c0,0.1-0.1,0.2-0.2,0.2H126.1z M132.7,23.8c-0.3,0-0.5-0.1-0.7-0.2c-0.1-0.1-0.2-0.3-0.2-0.6c0-0.4,0.1-0.6,0.2-0.7
	c0.1-0.1,0.4-0.2,0.7-0.2h1.5c0.4,0,0.6-0.1,0.8-0.3c0.2-0.2,0.3-0.5,0.3-0.9v-5.8c0-0.1,0.1-0.2,0.2-0.2h1.4c0.1,0,0.2,0.1,0.2,0.2
	v5.5c0,0.5,0.2,0.9,0.5,1.1c0.4,0.2,0.8,0.4,1.4,0.4h0.3c0.3,0,0.5,0.1,0.7,0.2c0.1,0.1,0.2,0.3,0.2,0.6c0,0.4-0.1,0.6-0.2,0.7
	c-0.1,0.1-0.4,0.2-0.7,0.2h-0.5c-0.5,0-0.9-0.1-1.2-0.3c-0.3-0.2-0.6-0.5-0.8-0.8c-0.4,0.8-1.1,1.1-2.3,1.1H132.7z M134,12.7
	c-0.1,0-0.2-0.1-0.2-0.2v-1.6c0-0.1,0.1-0.2,0.2-0.2h1.5c0.1,0,0.2,0.1,0.2,0.2v1.6c0,0.1-0.1,0.2-0.2,0.2H134z M136.7,12.7
	c-0.1,0-0.2-0.1-0.2-0.2v-1.6c0-0.1,0.1-0.2,0.2-0.2h1.5c0.1,0,0.2,0.1,0.2,0.2v1.6c0,0.1-0.1,0.2-0.2,0.2H136.7z M139.3,23.8
	c-0.3,0-0.5-0.1-0.7-0.2c-0.1-0.1-0.2-0.3-0.2-0.6c0-0.4,0.1-0.6,0.2-0.7c0.1-0.1,0.4-0.2,0.7-0.2h1.4c0.4,0,0.6-0.1,0.8-0.3
	c0.2-0.2,0.3-0.5,0.3-0.9V9.2c0-0.1,0.1-0.2,0.2-0.2h1.4c0.1,0,0.2,0.1,0.2,0.2v11.8c0,0.9-0.2,1.6-0.6,2.1c-0.4,0.4-1,0.7-2,0.7
	H139.3z M148.4,23.6c0,0.1-0.1,0.2-0.2,0.2h-1.4c-0.1,0-0.2-0.1-0.2-0.2V9.2c0-0.1,0.1-0.2,0.2-0.2h1.4c0.1,0,0.2,0.1,0.2,0.2V23.6z
	"/>
<g>
	<path class="st0" d="M17.1,32.1c0-0.1,0.1-0.1,0.1-0.1h0.5c0.1,0,0.1,0,0.1,0.1l1.9,5.5c0,0.1,0,0.1-0.1,0.1h-0.6
		c-0.1,0-0.1,0-0.1-0.1l-0.4-1.2h-2.3l-0.4,1.2c0,0.1-0.1,0.1-0.1,0.1h-0.6c-0.1,0-0.1,0-0.1-0.1L17.1,32.1z M18.3,35.7l-0.9-2.6h0
		l-0.9,2.6H18.3z"/>
	<path class="st0" d="M23.8,32.1C23.8,32,23.9,32,23.8,32.1l0.7-0.1c0.1,0,0.1,0,0.1,0.1v4.8c0,0,0,0,0,0h2.7c0.1,0,0.1,0,0.1,0.1
		v0.5c0,0.1,0,0.1-0.1,0.1h-3.4c-0.1,0-0.1,0-0.1-0.1V32.1z"/>
	<path class="st0" d="M32,37.7C32,37.7,31.9,37.6,32,37.7l-0.1-4.9c0,0,0,0,0,0h-1.5c-0.1,0-0.1,0-0.1-0.1v-0.5c0-0.1,0-0.1,0.1-0.1
		h3.9c0.1,0,0.1,0,0.1,0.1v0.5c0,0.1,0,0.1-0.1,0.1h-1.5c0,0,0,0,0,0v4.8c0,0.1,0,0.1-0.1,0.1H32z"/>
	<path class="st0" d="M39.3,32.1c0-0.1,0.1-0.1,0.1-0.1h0.5c0.1,0,0.1,0,0.1,0.1l1.9,5.5c0,0.1,0,0.1-0.1,0.1h-0.6
		c-0.1,0-0.1,0-0.1-0.1l-0.4-1.2h-2.3l-0.4,1.2c0,0.1-0.1,0.1-0.1,0.1h-0.6c-0.1,0-0.1,0-0.1-0.1L39.3,32.1z M40.6,35.7l-0.9-2.6h0
		l-0.9,2.6H40.6z"/>
	<path class="st0" d="M46.1,32.1C46.1,32,46.1,32,46.1,32.1l3.5-0.1c0.1,0,0.1,0,0.1,0.1v0.5c0,0.1,0,0.1-0.1,0.1h-2.7c0,0,0,0,0,0
		v1.7c0,0,0,0,0,0h2.3c0.1,0,0.1,0,0.1,0.1v0.5c0,0.1,0,0.1-0.1,0.1h-2.3c0,0,0,0,0,0v2.3c0,0.1,0,0.1-0.1,0.1h-0.6
		c-0.1,0-0.1,0-0.1-0.1V32.1z"/>
	<path class="st0" d="M54.8,32.1c0-0.1,0.1-0.1,0.1-0.1h0.5c0.1,0,0.1,0,0.1,0.1l1.9,5.5c0,0.1,0,0.1-0.1,0.1h-0.6
		c-0.1,0-0.1,0-0.1-0.1l-0.4-1.2h-2.3l-0.4,1.2c0,0.1-0.1,0.1-0.1,0.1h-0.6c-0.1,0-0.1,0-0.1-0.1L54.8,32.1z M56.1,35.7l-0.9-2.6h0
		l-0.9,2.6H56.1z"/>
	<path class="st0" d="M64.9,37.7c0,0-0.1,0-0.1-0.1l-1.1-2.3h-1.2c0,0,0,0,0,0v2.3c0,0.1,0,0.1-0.1,0.1h-0.6c-0.1,0-0.1,0-0.1-0.1
		v-5.5c0-0.1,0-0.1,0.1-0.1h2c0.3,0,0.5,0,0.7,0.1c0.2,0.1,0.4,0.2,0.6,0.3c0.2,0.1,0.3,0.3,0.4,0.5c0.1,0.2,0.1,0.4,0.1,0.7
		c0,0.4-0.1,0.7-0.3,1c-0.2,0.3-0.5,0.5-0.8,0.6l1.2,2.4c0,0,0,0.1,0,0.1s0,0-0.1,0H64.9z M63.7,34.6c0.3,0,0.6-0.1,0.8-0.2
		c0.2-0.2,0.3-0.4,0.3-0.7c0-0.3-0.1-0.5-0.3-0.7c-0.2-0.2-0.4-0.2-0.8-0.2h-1.3c0,0,0,0,0,0v1.8c0,0,0,0.1,0,0.1H63.7z"/>
	<path class="st0" d="M73.2,37.7c0,0-0.1,0-0.1-0.1L72,35.3h-1.2c0,0,0,0,0,0v2.3c0,0.1,0,0.1-0.1,0.1H70c-0.1,0-0.1,0-0.1-0.1v-5.5
		C70,32,70,32,70,32h2c0.3,0,0.5,0,0.7,0.1c0.2,0.1,0.4,0.2,0.6,0.3c0.2,0.1,0.3,0.3,0.4,0.5c0.1,0.2,0.1,0.4,0.1,0.7
		c0,0.4-0.1,0.7-0.3,1c-0.2,0.3-0.5,0.5-0.8,0.6l1.2,2.4c0,0,0,0.1,0,0.1s0,0-0.1,0H73.2z M72.1,34.6c0.3,0,0.6-0.1,0.8-0.2
		c0.2-0.2,0.3-0.4,0.3-0.7c0-0.3-0.1-0.5-0.3-0.7c-0.2-0.2-0.4-0.2-0.8-0.2h-1.3c0,0,0,0,0,0v1.8c0,0,0,0.1,0,0.1H72.1z"/>
	<path class="st0" d="M80.1,37.8c-0.5,0-0.9-0.1-1.2-0.3c-0.3-0.2-0.6-0.6-0.7-1c0-0.1-0.1-0.2-0.1-0.3c0-0.1,0-0.2,0-0.3
		s0-0.3,0-0.4c0-0.2,0-0.4,0-0.6c0-0.2,0-0.4,0-0.6c0-0.2,0-0.3,0-0.4s0-0.2,0-0.3c0-0.1,0-0.2,0.1-0.3c0.1-0.4,0.4-0.8,0.7-1
		c0.3-0.2,0.7-0.3,1.2-0.3c0.5,0,0.9,0.1,1.2,0.3c0.3,0.2,0.6,0.6,0.7,1c0,0.1,0.1,0.2,0.1,0.3c0,0.1,0,0.2,0,0.3s0,0.3,0,0.4
		c0,0.2,0,0.4,0,0.6c0,0.2,0,0.4,0,0.6c0,0.2,0,0.3,0,0.4s0,0.2,0,0.3c0,0.1,0,0.2-0.1,0.3c-0.1,0.4-0.4,0.8-0.7,1
		C81,37.7,80.6,37.8,80.1,37.8z M80.1,37.1c0.3,0,0.6-0.1,0.8-0.2c0.2-0.1,0.3-0.4,0.4-0.6c0,0,0-0.1,0-0.2c0-0.1,0-0.2,0-0.3
		c0-0.1,0-0.2,0-0.4c0-0.2,0-0.3,0-0.5s0-0.4,0-0.5c0-0.1,0-0.3,0-0.4c0-0.1,0-0.2,0-0.3c0-0.1,0-0.1,0-0.2
		c-0.1-0.3-0.2-0.5-0.4-0.6c-0.2-0.1-0.5-0.2-0.8-0.2s-0.6,0.1-0.8,0.2C79.2,33,79,33.2,79,33.5c0,0,0,0.1,0,0.2c0,0.1,0,0.2,0,0.3
		c0,0.1,0,0.2,0,0.4c0,0.2,0,0.3,0,0.5s0,0.4,0,0.5c0,0.1,0,0.3,0,0.4c0,0.1,0,0.2,0,0.3c0,0.1,0,0.1,0,0.2c0.1,0.3,0.2,0.5,0.4,0.6
		C79.6,37,79.8,37.1,80.1,37.1z"/>
	<path class="st0" d="M86.6,32.1C86.6,32,86.6,32,86.6,32.1l2-0.1c1,0,1.6,0.4,1.8,1.2c0,0.1,0,0.2,0.1,0.2s0,0.2,0.1,0.3
		c0,0.1,0,0.3,0,0.4s0,0.4,0,0.6c0,0.2,0,0.5,0,0.6s0,0.3,0,0.4c0,0.1,0,0.2-0.1,0.3s0,0.2-0.1,0.2c-0.3,0.8-0.9,1.2-1.8,1.2h-1.9
		c-0.1,0-0.1,0-0.1-0.1V32.1z M87.4,36.9C87.4,37,87.4,37,87.4,36.9l1.1,0c0.3,0,0.6-0.1,0.8-0.2c0.2-0.1,0.4-0.3,0.5-0.6
		c0,0,0-0.1,0-0.2s0-0.2,0-0.3s0-0.2,0-0.4s0-0.3,0-0.6c0-0.2,0-0.4,0-0.6s0-0.3,0-0.4c0-0.1,0-0.2,0-0.3s0-0.1,0-0.2
		c-0.1-0.3-0.2-0.5-0.5-0.6c-0.2-0.1-0.5-0.2-0.8-0.2h-1c0,0,0,0,0,0V36.9z"/>
	<path class="st0" d="M100.2,32.1C100.2,32,100.2,32,100.2,32.1l3.5-0.1c0.1,0,0.1,0,0.1,0.1v0.5c0,0.1,0,0.1-0.1,0.1H101
		c0,0,0,0,0,0v1.7c0,0,0,0,0,0h2.3c0.1,0,0.1,0,0.1,0.1v0.5c0,0.1,0,0.1-0.1,0.1H101c0,0,0,0,0,0v2.3c0,0.1,0,0.1-0.1,0.1h-0.6
		c-0.1,0-0.1,0-0.1-0.1V32.1z"/>
	<path class="st0" d="M109.9,37.8c-0.5,0-0.9-0.1-1.2-0.3c-0.3-0.2-0.6-0.6-0.7-1c0-0.1-0.1-0.2-0.1-0.3c0-0.1,0-0.2,0-0.3
		s0-0.3,0-0.4c0-0.2,0-0.4,0-0.6c0-0.2,0-0.4,0-0.6c0-0.2,0-0.3,0-0.4s0-0.2,0-0.3c0-0.1,0-0.2,0.1-0.3c0.1-0.4,0.4-0.8,0.7-1
		c0.3-0.2,0.7-0.3,1.2-0.3c0.5,0,0.9,0.1,1.2,0.3c0.3,0.2,0.6,0.6,0.7,1c0,0.1,0.1,0.2,0.1,0.3c0,0.1,0,0.2,0,0.3s0,0.3,0,0.4
		c0,0.2,0,0.4,0,0.6c0,0.2,0,0.4,0,0.6c0,0.2,0,0.3,0,0.4s0,0.2,0,0.3c0,0.1,0,0.2-0.1,0.3c-0.1,0.4-0.4,0.8-0.7,1
		C110.8,37.7,110.4,37.8,109.9,37.8z M109.9,37.1c0.3,0,0.6-0.1,0.8-0.2c0.2-0.1,0.3-0.4,0.4-0.6c0,0,0-0.1,0-0.2c0-0.1,0-0.2,0-0.3
		c0-0.1,0-0.2,0-0.4c0-0.2,0-0.3,0-0.5s0-0.4,0-0.5c0-0.1,0-0.3,0-0.4c0-0.1,0-0.2,0-0.3c0-0.1,0-0.1,0-0.2
		c-0.1-0.3-0.2-0.5-0.4-0.6c-0.2-0.1-0.5-0.2-0.8-0.2s-0.6,0.1-0.8,0.2c-0.2,0.1-0.3,0.4-0.4,0.6c0,0,0,0.1,0,0.2c0,0.1,0,0.2,0,0.3
		c0,0.1,0,0.2,0,0.4c0,0.2,0,0.3,0,0.5s0,0.4,0,0.5c0,0.1,0,0.3,0,0.4c0,0.1,0,0.2,0,0.3c0,0.1,0,0.1,0,0.2c0.1,0.3,0.2,0.5,0.4,0.6
		C109.3,37,109.6,37.1,109.9,37.1z"/>
	<path class="st0" d="M119.6,37.7c0,0-0.1,0-0.1-0.1l-1.1-2.3h-1.2c0,0,0,0,0,0v2.3c0,0.1,0,0.1-0.1,0.1h-0.6c-0.1,0-0.1,0-0.1-0.1
		v-5.5c0-0.1,0-0.1,0.1-0.1h2c0.3,0,0.5,0,0.7,0.1c0.2,0.1,0.4,0.2,0.6,0.3c0.2,0.1,0.3,0.3,0.4,0.5c0.1,0.2,0.1,0.4,0.1,0.7
		c0,0.4-0.1,0.7-0.3,1c-0.2,0.3-0.5,0.5-0.8,0.6l1.2,2.4c0,0,0,0.1,0,0.1s0,0-0.1,0H119.6z M118.5,34.6c0.3,0,0.6-0.1,0.8-0.2
		c0.2-0.2,0.3-0.4,0.3-0.7c0-0.3-0.1-0.5-0.3-0.7c-0.2-0.2-0.4-0.2-0.8-0.2h-1.3c0,0,0,0,0,0v1.8c0,0,0,0.1,0,0.1H118.5z"/>
	<path class="st0" d="M133.1,37.7c0,0-0.1,0-0.1-0.1l-1.1-2.3h-1.2c0,0,0,0,0,0v2.3c0,0.1,0,0.1-0.1,0.1h-0.6c-0.1,0-0.1,0-0.1-0.1
		v-5.5c0-0.1,0-0.1,0.1-0.1h2c0.3,0,0.5,0,0.7,0.1c0.2,0.1,0.4,0.2,0.6,0.3c0.2,0.1,0.3,0.3,0.4,0.5c0.1,0.2,0.1,0.4,0.1,0.7
		c0,0.4-0.1,0.7-0.3,1c-0.2,0.3-0.5,0.5-0.8,0.6l1.2,2.4c0,0,0,0.1,0,0.1s0,0-0.1,0H133.1z M132,34.6c0.3,0,0.6-0.1,0.8-0.2
		c0.2-0.2,0.3-0.4,0.3-0.7c0-0.3-0.1-0.5-0.3-0.7c-0.2-0.2-0.4-0.2-0.8-0.2h-1.3c0,0,0,0,0,0v1.8c0,0,0,0.1,0,0.1H132z"/>
	<path class="st0" d="M138.2,32.1C138.2,32,138.2,32,138.2,32.1l3.5-0.1c0.1,0,0.1,0,0.1,0.1v0.5c0,0.1,0,0.1-0.1,0.1H139
		c0,0,0,0,0,0v1.7c0,0,0,0,0,0h2.3c0.1,0,0.1,0,0.1,0.1v0.5c0,0.1,0,0.1-0.1,0.1H139c0,0,0,0,0,0v1.7c0,0,0,0,0,0h2.7
		c0.1,0,0.1,0,0.1,0.1v0.5c0,0.1,0,0.1-0.1,0.1h-3.4c-0.1,0-0.1,0-0.1-0.1V32.1z"/>
	<path class="st0" d="M146,36.4c0-0.1-0.1-0.2-0.1-0.3c0-0.1,0-0.2,0-0.3s0-0.3,0-0.4c0-0.2,0-0.4,0-0.6c0-0.2,0-0.4,0-0.6
		c0-0.2,0-0.3,0-0.4s0-0.2,0-0.3c0-0.1,0-0.2,0.1-0.3c0.1-0.4,0.4-0.8,0.7-1c0.3-0.2,0.7-0.3,1.2-0.3c0.4,0,0.8,0.1,1.1,0.3
		c0.3,0.2,0.5,0.5,0.7,0.8c0,0,0,0.1,0,0.1l-0.5,0.2c-0.1,0-0.1,0-0.1,0c-0.1-0.2-0.3-0.4-0.4-0.5c-0.2-0.1-0.4-0.2-0.7-0.2
		c-0.3,0-0.6,0.1-0.7,0.2c-0.2,0.1-0.3,0.3-0.4,0.6c0,0.1,0,0.1,0,0.2c0,0.1,0,0.2,0,0.3s0,0.2,0,0.4c0,0.2,0,0.3,0,0.6
		c0,0.2,0,0.4,0,0.6c0,0.2,0,0.3,0,0.4s0,0.2,0,0.3c0,0.1,0,0.1,0,0.2c0.1,0.3,0.2,0.5,0.4,0.6c0.2,0.1,0.4,0.2,0.7,0.2
		c0.3,0,0.5-0.1,0.7-0.2c0.2-0.1,0.3-0.3,0.4-0.5c0-0.1,0.1-0.1,0.1,0l0.5,0.2c0,0,0,0.1,0,0.1c-0.2,0.4-0.4,0.6-0.7,0.8
		c-0.3,0.2-0.7,0.3-1.1,0.3c-0.5,0-0.9-0.1-1.2-0.3C146.4,37.2,146.2,36.9,146,36.4z"/>
</g>
<g>
	<defs>
		<rect id="SVGID_3_" x="-38.7" y="-196.9" width="443.3" height="1010.8"/>
	</defs>
	<clipPath id="SVGID_4_">
		<use xlink:href="#SVGID_3_"  style="overflow:visible;"/>
	</clipPath>
	<path class="st3" d="M181.4,21.9c-1.2,0.8-1.5,2.5-0.7,3.7c0.8,1.2,2.5,1.5,3.7,0.7c1.2-0.8,1.5-2.5,0.7-3.7
		C184.3,21.4,182.6,21.1,181.4,21.9"/>
	<path class="st4" d="M185,16.3L185,16.3c0.6-0.5,1.4-0.4,1.9,0.2l2.1,2.5c0.5,0.6,0.4,1.4-0.2,1.9c-0.6,0.5-1.4,0.4-1.9-0.2
		l-2.1-2.5C184.4,17.5,184.4,16.7,185,16.3"/>
	<path class="st4" d="M185.1,31.3L185.1,31.3c-0.2,0.7-0.9,1.1-1.6,0.9l-3.2-0.9c-0.7-0.2-1.1-0.9-0.9-1.6c0.2-0.7,0.9-1.1,1.6-0.9
		l3.2,0.9C184.8,29.8,185.3,30.6,185.1,31.3"/>
	<path class="st4" d="M176.4,19L176.4,19c-0.2-0.7,0.1-1.4,0.8-1.7l3.1-1.1c0.7-0.2,1.4,0.1,1.7,0.8c0.2,0.7-0.1,1.4-0.8,1.7
		l-3.1,1.1C177.4,20,176.6,19.7,176.4,19"/>
	<path class="st4" d="M190.5,24.1L190.5,24.1c0.6,0.4,0.7,1.2,0.3,1.8l-1.9,2.7c-0.4,0.6-1.2,0.7-1.8,0.3c-0.6-0.4-0.7-1.2-0.3-1.8
		l1.9-2.7C189.1,23.8,189.9,23.7,190.5,24.1"/>
	<path class="st4" d="M176,28L176,28c-0.7,0-1.3-0.6-1.3-1.3v-3.3c0-0.7,0.6-1.3,1.3-1.3s1.3,0.6,1.3,1.3v3.3
		C177.4,27.5,176.8,28,176,28"/>
	<path class="st4" d="M195.8,20.5L195.8,20.5c0.6-0.2,1.3,0.1,1.6,0.7l1,2.9c0.2,0.6-0.1,1.3-0.7,1.6c-0.6,0.2-1.3-0.1-1.6-0.7
		l-1-2.9C194.9,21.4,195.2,20.7,195.8,20.5"/>
	<path class="st4" d="M171.3,31.8L171.3,31.8c-0.5,0.4-1.3,0.4-1.7-0.2l-2-2.3c-0.4-0.5-0.4-1.3,0.2-1.7c0.5-0.4,1.3-0.4,1.7,0.2
		l2,2.3C171.9,30.6,171.8,31.4,171.3,31.8"/>
	<path class="st4" d="M190.5,12.8L190.5,12.8c0.3-0.6,1.1-0.8,1.7-0.4l2.7,1.5c0.6,0.3,0.8,1.1,0.4,1.7c-0.3,0.6-1.1,0.8-1.7,0.4
		l-2.7-1.5C190.3,14.1,190.1,13.4,190.5,12.8"/>
	<path class="st4" d="M179,37.3L179,37.3c-0.1,0.7-0.8,1.1-1.4,1l-3-0.5c-0.7-0.1-1.1-0.8-1-1.4c0.1-0.7,0.8-1.1,1.4-1l3,0.5
		C178.6,36,179.1,36.6,179,37.3"/>
	<path class="st4" d="M181.4,10.3L181.4,10.3c-0.1-0.7,0.3-1.3,1-1.4l3-0.5c0.7-0.1,1.3,0.3,1.4,1c0.1,0.7-0.3,1.3-1,1.4l-3,0.5
		C182.1,11.4,181.5,11,181.4,10.3"/>
	<path class="st4" d="M188.3,36.5L188.3,36.5c0.3,0.6,0.1,1.3-0.4,1.7l-2.7,1.5c-0.6,0.3-1.3,0.1-1.7-0.4s-0.1-1.3,0.4-1.7l2.7-1.5
		C187.2,35.7,188,35.9,188.3,36.5"/>
	<path class="st4" d="M172.9,14.3L172.9,14.3c-0.5-0.4-0.6-1.2-0.2-1.7l2-2.3c0.4-0.5,1.2-0.6,1.7-0.2c0.5,0.4,0.6,1.2,0.2,1.7
		l-2,2.3C174.2,14.6,173.4,14.7,172.9,14.3"/>
	<path class="st4" d="M195,29.8L195,29.8c0.6,0.2,1,0.9,0.7,1.6l-1,2.9c-0.2,0.6-0.9,1-1.6,0.7c-0.6-0.2-1-0.9-0.7-1.6l1-2.9
		C193.6,29.9,194.3,29.6,195,29.8"/>
	<path class="st4" d="M168.9,22.8L168.9,22.8c-0.7,0-1.2-0.5-1.2-1.2v-3.1c0-0.7,0.5-1.2,1.2-1.2c0.7,0,1.2,0.5,1.2,1.2v3.1
		C170.1,22.2,169.6,22.8,168.9,22.8"/>
	<path class="st4" d="M201.7,27.7L201.7,27.7c0.9,0.1,1.6,0.9,1.5,1.8l-0.3,4.2c-0.1,0.9-0.9,1.6-1.8,1.5c-0.9-0.1-1.6-0.9-1.5-1.8
		l0.3-4.2C199.9,28.3,200.7,27.7,201.7,27.7"/>
	<path class="st4" d="M164.6,27.8L164.6,27.8c-0.9,0.2-1.8-0.3-2.1-1.2l-1.1-4.1c-0.2-0.9,0.3-1.8,1.2-2.1c0.9-0.2,1.8,0.3,2.1,1.2
		l1.1,4.1C166,26.7,165.5,27.6,164.6,27.8"/>
	<path class="st4" d="M199.4,15L199.4,15c0.8-0.5,1.8-0.4,2.3,0.4l2.4,3.4c0.5,0.8,0.4,1.8-0.4,2.3c-0.8,0.5-1.8,0.4-2.3-0.4
		l-2.4-3.4C198.5,16.6,198.6,15.6,199.4,15"/>
	<path class="st4" d="M171,39L171,39c-0.5,0.8-1.6,1-2.3,0.4l-3.5-2.4c-0.8-0.5-1-1.6-0.4-2.3c0.5-0.8,1.6-1,2.3-0.4l3.5,2.4
		C171.4,37.2,171.6,38.2,171,39"/>
	<path class="st4" d="M189.5,6.8L189.5,6.8c0.2-0.9,1.2-1.4,2-1.2l4.1,1.1c0.9,0.2,1.4,1.2,1.2,2c-0.2,0.9-1.2,1.4-2,1.2l-4.1-1.1
		C189.8,8.6,189.3,7.7,189.5,6.8"/>
	<path class="st4" d="M183.2,43.3L183.2,43.3c0.1,0.9-0.6,1.7-1.5,1.8l-4.2,0.4c-0.9,0.1-1.7-0.6-1.8-1.5c-0.1-0.9,0.6-1.7,1.5-1.8
		l4.2-0.4C182.3,41.7,183.1,42.4,183.2,43.3"/>
	<path class="st4" d="M176.6,6.8L176.6,6.8c-0.4-0.8,0-1.8,0.8-2.2l3.8-1.8c0.8-0.4,1.8,0,2.2,0.8c0.4,0.8,0,1.8-0.8,2.2l-3.8,1.8
		C178,8,177,7.7,176.6,6.8"/>
	<path class="st4" d="M195.3,38.9L195.3,38.9c0.7,0.7,0.7,1.7,0,2.4l-3,3c-0.7,0.7-1.7,0.7-2.4,0c-0.7-0.7-0.7-1.7,0-2.4l3-3
		C193.5,38.3,194.6,38.2,195.3,38.9"/>
	<path class="st4" d="M166.8,15.1L166.8,15.1c-0.8-0.4-1.2-1.4-0.8-2.2l1.8-3.8c0.4-0.8,1.4-1.2,2.2-0.8c0.8,0.4,1.2,1.4,0.8,2.2
		l-1.8,3.8C168.6,15.1,167.6,15.5,166.8,15.1"/>
</g>
</svg>
